<svg width="16" height="16" viewBox="0 0 16 16" fill="none" xmlns="http://www.w3.org/2000/svg">
<g clip-path="url(#clip0_5673_552)">
<path d="M12.6668 2.6665H3.3335C2.80306 2.6665 2.29436 2.87722 1.91928 3.25229C1.54421 3.62736 1.3335 4.13607 1.3335 4.6665V11.3332C1.3335 11.8636 1.54421 12.3723 1.91928 12.7474C2.29436 13.1225 2.80306 13.3332 3.3335 13.3332H12.6668C13.1973 13.3332 13.706 13.1225 14.081 12.7474C14.4561 12.3723 14.6668 11.8636 14.6668 11.3332V4.6665C14.6668 4.13607 14.4561 3.62736 14.081 3.25229C13.706 2.87722 13.1973 2.6665 12.6668 2.6665V2.6665ZM12.2202 3.99984L8.00016 7.1665L3.78016 3.99984H12.2202ZM12.6668 11.9998H3.3335C3.15669 11.9998 2.98712 11.9296 2.86209 11.8046C2.73707 11.6796 2.66683 11.51 2.66683 11.3332V4.83317L7.60016 8.53317C7.71556 8.61972 7.85592 8.6665 8.00016 8.6665C8.14441 8.6665 8.28477 8.61972 8.40016 8.53317L13.3335 4.83317V11.3332C13.3335 11.51 13.2633 11.6796 13.1382 11.8046C13.0132 11.9296 12.8436 11.9998 12.6668 11.9998Z" fill="#899CC9"/>
</g>
<defs>
<clipPath id="clip0_5673_552">
<rect width="16" height="16" fill="white"/>
</clipPath>
</defs>
</svg>
