<svg width="16" height="16" viewBox="0 0 16 16" fill="none" xmlns="http://www.w3.org/2000/svg">
<g clip-path="url(#clip0_5673_90)">
<path d="M3.1398 2.19313C3.07764 2.13097 3.00385 2.08167 2.92263 2.04802C2.84142 2.01438 2.75437 1.99707 2.66646 1.99707C2.57856 1.99707 2.49151 2.01438 2.4103 2.04802C2.32908 2.08167 2.25529 2.13097 2.19313 2.19313C2.0676 2.31867 1.99707 2.48893 1.99707 2.66646C1.99707 2.844 2.0676 3.01426 2.19313 3.1398L5.94646 6.89313C5.709 7.33488 5.62019 7.84138 5.69319 8.33756C5.76619 8.83375 5.99712 9.29321 6.35176 9.64784C6.70639 10.0025 7.16585 10.2334 7.66203 10.3064C8.15822 10.3794 8.66472 10.2906 9.10646 10.0531L12.8598 13.8065C12.9218 13.8689 12.9955 13.9185 13.0767 13.9524C13.158 13.9862 13.2451 14.0037 13.3331 14.0037C13.4211 14.0037 13.5083 13.9862 13.5895 13.9524C13.6708 13.9185 13.7445 13.8689 13.8065 13.8065C13.8689 13.7445 13.9185 13.6708 13.9524 13.5895C13.9862 13.5083 14.0037 13.4211 14.0037 13.3331C14.0037 13.2451 13.9862 13.158 13.9524 13.0767C13.9185 12.9955 13.8689 12.9218 13.8065 12.8598L3.1398 2.19313ZM7.9998 8.9998C7.73458 8.9998 7.48023 8.89444 7.29269 8.7069C7.10515 8.51937 6.9998 8.26501 6.9998 7.9998V7.95313L8.0398 8.99313L7.9998 8.9998Z" fill="#899CC9"/>
<path d="M8.14655 11.3332C5.27988 11.3999 3.39988 8.93992 2.81322 7.99992C3.23086 7.33371 3.73279 6.72423 4.30655 6.18658L3.33322 5.24658C2.58077 5.95556 1.93616 6.77087 1.41988 7.66658C1.36137 7.76793 1.33057 7.88289 1.33057 7.99992C1.33057 8.11694 1.36137 8.2319 1.41988 8.33325C1.83988 9.05992 4.08655 12.6666 8.01322 12.6666H8.17988C8.91825 12.6447 9.64706 12.4935 10.3332 12.2199L9.27988 11.1666C8.90946 11.264 8.52934 11.3199 8.14655 11.3332Z" fill="#899CC9"/>
<path d="M14.5798 7.66674C14.1532 6.92674 11.7998 3.21341 7.81984 3.33341C7.08147 3.35531 6.35266 3.50649 5.6665 3.78008L6.71984 4.83341C7.09026 4.73596 7.47038 4.68006 7.85317 4.66674C10.7132 4.59341 12.5932 7.06008 13.1865 8.00008C12.7585 8.66827 12.2453 9.27785 11.6598 9.81341L12.6665 10.7534C13.4284 10.0463 14.0821 9.23089 14.6065 8.33341C14.661 8.22974 14.6873 8.11354 14.6826 7.9965C14.6779 7.87947 14.6425 7.76573 14.5798 7.66674V7.66674Z" fill="#899CC9"/>
</g>
<defs>
<clipPath id="clip0_5673_90">
<rect width="16" height="16" fill="white"/>
</clipPath>
</defs>
</svg>
