<svg width="16" height="16" viewBox="0 0 16 16" fill="none" xmlns="http://www.w3.org/2000/svg">
<g clip-path="url(#clip0_5673_990)">
<path d="M14.9918 8.13716C14.9918 7.53628 14.943 7.09779 14.8375 6.64307H7.97559V9.35517H12.0034C11.9222 10.0292 11.4837 11.0442 10.5092 11.7262L10.4955 11.817L12.6651 13.4977L12.8154 13.5127C14.1959 12.2378 14.9918 10.3621 14.9918 8.13716Z" fill="#4285F4"/>
<path d="M7.97573 15.2827C9.949 15.2827 11.6056 14.633 12.8156 13.5125L10.5093 11.726C9.89218 12.1564 9.06386 12.4568 7.97573 12.4568C6.04305 12.4568 4.40271 11.182 3.81797 9.41992L3.73226 9.4272L1.47628 11.173L1.44678 11.255C2.64861 13.6424 5.11727 15.2827 7.97573 15.2827Z" fill="#34A853"/>
<path d="M3.81823 9.42021C3.66394 8.96548 3.57465 8.47824 3.57465 7.97481C3.57465 7.47133 3.66394 6.98414 3.81011 6.52942L3.80603 6.43257L1.52177 4.65869L1.44704 4.69424C0.951703 5.68491 0.66748 6.79739 0.66748 7.97481C0.66748 9.15223 0.951703 10.2647 1.44704 11.2553L3.81823 9.42021Z" fill="#FBBC05"/>
<path d="M7.97573 3.4923C9.34809 3.4923 10.2738 4.08507 10.8017 4.58043L12.8643 2.56662C11.5975 1.3892 9.949 0.666504 7.97573 0.666504C5.11727 0.666504 2.64861 2.30676 1.44678 4.69407L3.80985 6.52925C4.40271 4.76718 6.04305 3.4923 7.97573 3.4923Z" fill="#EB4335"/>
</g>
<defs>
<clipPath id="clip0_5673_990">
<rect width="14.333" height="14.6667" fill="white" transform="translate(0.666504 0.666504)"/>
</clipPath>
</defs>
</svg>
