<svg width="60" height="60" viewBox="0 0 60 60" fill="none" xmlns="http://www.w3.org/2000/svg">
<rect width="60" height="60" rx="30" fill="#F1F6FF"/>
<g clip-path="url(#clip0_5449_1630)">
<path d="M39.3334 19.3335H20.6667C19.6059 19.3335 18.5885 19.7549 17.8383 20.5051C17.0882 21.2552 16.6667 22.2726 16.6667 23.3335V36.6668C16.6667 37.7277 17.0882 38.7451 17.8383 39.4953C18.5885 40.2454 19.6059 40.6668 20.6667 40.6668H39.3334C40.3943 40.6668 41.4117 40.2454 42.1618 39.4953C42.912 38.7451 43.3334 37.7277 43.3334 36.6668V23.3335C43.3334 22.2726 42.912 21.2552 42.1618 20.5051C41.4117 19.7549 40.3943 19.3335 39.3334 19.3335ZM38.4401 22.0002L30.0001 28.3335L21.5601 22.0002H38.4401ZM39.3334 38.0002H20.6667C20.3131 38.0002 19.974 37.8597 19.7239 37.6096C19.4739 37.3596 19.3334 37.0205 19.3334 36.6668V23.6668L29.2001 31.0668C29.4309 31.2399 29.7116 31.3335 30.0001 31.3335C30.2886 31.3335 30.5693 31.2399 30.8001 31.0668L40.6667 23.6668V36.6668C40.6667 37.0205 40.5263 37.3596 40.2762 37.6096C40.0262 37.8597 39.687 38.0002 39.3334 38.0002Z" fill="#899CC9"/>
</g>
<defs>
<clipPath id="clip0_5449_1630">
<rect width="32" height="32" fill="white" transform="translate(14 14)"/>
</clipPath>
</defs>
</svg>
