<svg width="16" height="16" viewBox="0 0 16 16" fill="none" xmlns="http://www.w3.org/2000/svg">
<g clip-path="url(#clip0_5673_581)">
<path d="M11.3332 5.3334H10.6665V4.0734C10.6665 3.36616 10.3856 2.68788 9.88546 2.18779C9.38536 1.68769 8.70708 1.40674 7.99984 1.40674C7.29259 1.40674 6.61432 1.68769 6.11422 2.18779C5.61412 2.68788 5.33317 3.36616 5.33317 4.0734V5.3334H4.6665C4.13607 5.3334 3.62736 5.54412 3.25229 5.91919C2.87722 6.29426 2.6665 6.80297 2.6665 7.3334V12.6667C2.6665 13.1972 2.87722 13.7059 3.25229 14.081C3.62736 14.456 4.13607 14.6667 4.6665 14.6667H11.3332C11.8636 14.6667 12.3723 14.456 12.7474 14.081C13.1225 13.7059 13.3332 13.1972 13.3332 12.6667V7.3334C13.3332 6.80297 13.1225 6.29426 12.7474 5.91919C12.3723 5.54412 11.8636 5.3334 11.3332 5.3334ZM6.6665 4.0734C6.65754 3.71027 6.7928 3.35837 7.04269 3.09474C7.29258 2.8311 7.63674 2.67721 7.99984 2.66674C8.36293 2.67721 8.70709 2.8311 8.95698 3.09474C9.20687 3.35837 9.34214 3.71027 9.33317 4.0734V5.3334H6.6665V4.0734ZM11.9998 12.6667C11.9998 12.8435 11.9296 13.0131 11.8046 13.1381C11.6796 13.2632 11.51 13.3334 11.3332 13.3334H4.6665C4.48969 13.3334 4.32012 13.2632 4.1951 13.1381C4.07008 13.0131 3.99984 12.8435 3.99984 12.6667V7.3334C3.99984 7.15659 4.07008 6.98702 4.1951 6.862C4.32012 6.73698 4.48969 6.66674 4.6665 6.66674H11.3332C11.51 6.66674 11.6796 6.73698 11.8046 6.862C11.9296 6.98702 11.9998 7.15659 11.9998 7.3334V12.6667Z" fill="#899CC9"/>
<path d="M8 8C7.60444 8 7.21776 8.1173 6.88886 8.33706C6.55996 8.55682 6.30362 8.86918 6.15224 9.23463C6.00087 9.60009 5.96126 10.0022 6.03843 10.3902C6.1156 10.7781 6.30608 11.1345 6.58579 11.4142C6.86549 11.6939 7.22186 11.8844 7.60982 11.9616C7.99778 12.0387 8.39992 11.9991 8.76537 11.8478C9.13082 11.6964 9.44318 11.44 9.66294 11.1111C9.8827 10.7822 10 10.3956 10 10C10 9.46957 9.78929 8.96086 9.41422 8.58579C9.03914 8.21071 8.53043 8 8 8ZM8 10.6667C7.86815 10.6667 7.73925 10.6276 7.62962 10.5543C7.51999 10.4811 7.43454 10.3769 7.38408 10.2551C7.33362 10.1333 7.32042 9.99926 7.34614 9.86994C7.37187 9.74062 7.43536 9.62183 7.5286 9.5286C7.62183 9.43536 7.74062 9.37187 7.86994 9.34614C7.99926 9.32042 8.13331 9.33362 8.25512 9.38408C8.37694 9.43454 8.48106 9.51999 8.55431 9.62962C8.62757 9.73925 8.66667 9.86815 8.66667 10C8.66667 10.1768 8.59643 10.3464 8.47141 10.4714C8.34638 10.5964 8.17681 10.6667 8 10.6667Z" fill="#899CC9"/>
</g>
<defs>
<clipPath id="clip0_5673_581">
<rect width="16" height="16" fill="white"/>
</clipPath>
</defs>
</svg>
