<svg width="16" height="16" viewBox="0 0 16 16" fill="none" xmlns="http://www.w3.org/2000/svg">
<g clip-path="url(#clip0_5673_1031)">
<path d="M8.00016 7.33333C8.52758 7.33333 9.04315 7.17694 9.48168 6.88392C9.92021 6.5909 10.262 6.17443 10.4638 5.68716C10.6657 5.19989 10.7185 4.66371 10.6156 4.14643C10.5127 3.62914 10.2587 3.15399 9.88578 2.78105C9.51284 2.40811 9.03769 2.15413 8.5204 2.05124C8.00312 1.94835 7.46694 2.00116 6.97967 2.20299C6.4924 2.40482 6.07593 2.74662 5.78291 3.18515C5.48989 3.62368 5.3335 4.13925 5.3335 4.66667C5.3335 5.37391 5.61445 6.05219 6.11454 6.55229C6.61464 7.05238 7.29292 7.33333 8.00016 7.33333ZM8.00016 3.33333C8.26387 3.33333 8.52166 3.41153 8.74092 3.55804C8.96019 3.70455 9.13109 3.91279 9.232 4.15642C9.33292 4.40006 9.35932 4.66815 9.30788 4.92679C9.25643 5.18543 9.12944 5.42301 8.94297 5.60948C8.7565 5.79595 8.51892 5.92293 8.26028 5.97438C8.00164 6.02583 7.73355 5.99942 7.48992 5.89851C7.24628 5.79759 7.03805 5.62669 6.89154 5.40743C6.74503 5.18816 6.66683 4.93038 6.66683 4.66667C6.66683 4.31305 6.80731 3.97391 7.05735 3.72386C7.3074 3.47381 7.64654 3.33333 8.00016 3.33333Z" fill="#899CC9"/>
<path d="M8.00016 8.6665C6.76249 8.6665 5.5755 9.15817 4.70033 10.0333C3.82516 10.9085 3.3335 12.0955 3.3335 13.3332C3.3335 13.51 3.40373 13.6796 3.52876 13.8046C3.65378 13.9296 3.82335 13.9998 4.00016 13.9998C4.17697 13.9998 4.34654 13.9296 4.47157 13.8046C4.59659 13.6796 4.66683 13.51 4.66683 13.3332C4.66683 12.4491 5.01802 11.6013 5.64314 10.9761C6.26826 10.351 7.11611 9.99984 8.00016 9.99984C8.88422 9.99984 9.73206 10.351 10.3572 10.9761C10.9823 11.6013 11.3335 12.4491 11.3335 13.3332C11.3335 13.51 11.4037 13.6796 11.5288 13.8046C11.6538 13.9296 11.8234 13.9998 12.0002 13.9998C12.177 13.9998 12.3465 13.9296 12.4716 13.8046C12.5966 13.6796 12.6668 13.51 12.6668 13.3332C12.6668 12.0955 12.1752 10.9085 11.3 10.0333C10.4248 9.15817 9.23784 8.6665 8.00016 8.6665V8.6665Z" fill="#899CC9"/>
</g>
<defs>
<clipPath id="clip0_5673_1031">
<rect width="16" height="16" fill="white"/>
</clipPath>
</defs>
</svg>
